<svg width="237" height="237" viewBox="0 0 237 237" fill="none" xmlns="http://www.w3.org/2000/svg">
<rect width="237" height="237" fill="none"/>
<g clip-path="url(#clip0_0_1)">
<rect width="1366" height="761" transform="translate(-901 -276)" fill="none"/>
<g clip-path="url(#clip1_0_1)" filter="url(#filter0_d_0_1)">
<path d="M196.772 200.279C195.495 200.279 194.219 200.176 192.942 199.918C148.816 191.219 98.0215 174.851 49.8757 153.851C38.9506 149.064 33.6537 135.629 38.052 123.739C42.4504 111.849 54.7943 106.084 65.7193 110.871C111.264 130.74 159.126 146.181 200.509 154.365C212.096 156.63 219.758 168.675 217.677 181.285C215.832 192.455 206.893 200.279 196.772 200.279Z" fill="#0AA7BD"/>
<path d="M195.164 109.533C194.644 109.533 194.171 109.533 193.651 109.481C121.952 104.025 65.1518 95.3266 20.0328 82.8703C8.63486 79.7305 1.72986 67.1198 4.66212 54.715C7.54709 42.3102 19.1342 34.8467 30.5322 37.9865C73.1446 49.7737 127.486 58.0607 196.63 63.3109C208.36 64.1859 217.204 75.2524 216.4 88.0176C215.596 100.216 206.231 109.533 195.164 109.533Z" fill="#0AA7BD"/>
<path d="M40.2276 84.6718C33.3699 84.6718 27.0797 84.2601 21.7354 83.2821C10.1483 81.1717 2.34469 69.1787 4.28377 56.568C6.22284 43.9573 17.2425 35.4644 28.8296 37.5747C39.8965 39.6336 68.7462 38.1409 116.466 27.9494C153.072 20.1256 188.449 9.57383 202.542 2.2133C213.136 -3.29423 225.858 1.59563 230.919 13.1254C235.98 24.6552 231.487 38.5012 220.893 44.0088C199.657 55.0753 155.768 66.708 124.648 73.3994C103.082 78.0319 67.3273 84.6718 40.2276 84.6718Z" fill="url(#paint0_linear_0_1)"/>
<path d="M95.7986 229C84.4952 229 75.1309 219.375 74.5634 206.97C73.9959 194.205 83.0291 183.344 94.8055 182.726C130.04 180.873 160.923 172.175 186.557 156.836C196.867 150.659 209.778 154.777 215.454 165.998C221.129 177.219 217.346 191.271 207.035 197.448C175.679 216.183 138.6 226.787 96.8391 229C96.4608 229 96.1297 229 95.7986 229Z" fill="url(#paint1_linear_0_1)"/>
<path d="M57.8211 155.549C46.9434 155.549 37.6737 146.541 36.6332 134.497C35.5454 121.783 44.153 110.459 55.8821 109.327C114.007 103.511 142.667 91.3118 184.901 66.0904C195.212 59.9652 208.123 64.0315 213.798 75.2524C219.426 86.4734 215.69 100.525 205.38 106.702C183.483 119.776 164.234 130.173 141.532 138.306C117.932 146.747 91.9678 152.203 59.8075 155.446C59.1454 155.498 58.4833 155.549 57.8211 155.549Z" fill="url(#paint2_linear_0_1)"/>
</g>
<g clip-path="url(#clip2_0_1)">
</g>
</g>
<defs>
<filter id="filter0_d_0_1" x="0" y="0" width="237" height="237" filterUnits="userSpaceOnUse" color-interpolation-filters="sRGB">
<feFlood flood-opacity="0" result="BackgroundImageFix"/>
<feColorMatrix in="SourceAlpha" type="matrix" values="0 0 0 0 0 0 0 0 0 0 0 0 0 0 0 0 0 0 127 0" result="hardAlpha"/>
<feOffset dy="4"/>
<feGaussianBlur stdDeviation="2"/>
<feComposite in2="hardAlpha" operator="out"/>
<feColorMatrix type="matrix" values="0 0 0 0 0 0 0 0 0 0 0 0 0 0 0 0 0 0 0.25 0"/>
<feBlend mode="normal" in2="BackgroundImageFix" result="effect1_dropShadow_0_1"/>
<feBlend mode="normal" in="SourceGraphic" in2="effect1_dropShadow_0_1" result="shape"/>
</filter>
<linearGradient id="paint0_linear_0_1" x1="4.0884" y1="41.776" x2="232.805" y2="43.6404" gradientUnits="userSpaceOnUse">
<stop stop-color="#09A7BC"/>
<stop offset="1" stop-color="#2EC0EE"/>
</linearGradient>
<linearGradient id="paint1_linear_0_1" x1="74.6009" y1="191.008" x2="217.976" y2="191.835" gradientUnits="userSpaceOnUse">
<stop stop-color="#09A7BC"/>
<stop offset="1" stop-color="#2EC0EE"/>
</linearGradient>
<linearGradient id="paint2_linear_0_1" x1="36.6192" y1="108.812" x2="216.27" y2="109.868" gradientUnits="userSpaceOnUse">
<stop stop-color="#09A7BC"/>
<stop offset="1" stop-color="#2EC0EE"/>
</linearGradient>
<clipPath id="clip0_0_1">
<rect width="1366" height="761" fill="white" transform="translate(-901 -276)"/>
</clipPath>
<clipPath id="clip1_0_1">
<rect width="229" height="229" fill="white" transform="translate(4)"/>
</clipPath>
<clipPath id="clip2_0_1">
<rect width="1217" height="1119" fill="white" transform="translate(-1193 -523)"/>
</clipPath>
</defs>
</svg>
